HIERARCHY
ROOT hips
{
  OFFSET 0 10.9056651 0.03933671698
  CHANNELS 6 Xposition Yposition Zposition Yrotation Xrotation Zrotation
  JOINT spine
  {
    OFFSET -6.5913815e-31 0.564535260299999 0
    CHANNELS 3 Yrotation Xrotation Zrotation
    JOINT chest
    {
      OFFSET 0 1.225696680698804 0
      CHANNELS 3 Yrotation Xrotation Zrotation
      JOINT upperChest
      {
        OFFSET 0 1.1777955715163502 0
        CHANNELS 3 Yrotation Xrotation Zrotation
        JOINT neck
        {
          OFFSET 0 1.493297465019708 0
          CHANNELS 3 Yrotation Xrotation Zrotation
          JOINT head
          {
            OFFSET 0 0.825720494384254 0
            CHANNELS 3 Yrotation Xrotation Zrotation
            JOINT leftEye
            {
              OFFSET 0.18304655709999998 0.6901645300000001 0.23533690400000007
              CHANNELS 3 Yrotation Xrotation Zrotation
              End Site
              {
                OFFSET 0.18304655709999998 0.6901645300000001 0.23533690400000007
              }
            }
            JOINT rightEye
            {
              OFFSET -0.18304645479999998 0.6901645300000001 0.2353369854000001
              CHANNELS 3 Yrotation Xrotation Zrotation
              End Site
              {
                OFFSET -0.18304645479999998 0.6901645300000001 0.2353369854000001
              }
            }
          }
        }
        JOINT leftShoulder
        {
          OFFSET 0.23056015730000004 1.1458171999999995 0
          CHANNELS 3 Yrotation Xrotation Zrotation
          JOINT leftUpperArm
          {
            OFFSET 0.7638935272422844 0 0
            CHANNELS 3 Yrotation Xrotation Zrotation
            JOINT leftLowerArm
            {
              OFFSET 2.372967839000001 0 0
              CHANNELS 3 Yrotation Xrotation Zrotation
              JOINT leftHand
              {
                OFFSET 2.2110674175677087 0 0
                CHANNELS 3 Yrotation Xrotation Zrotation
                JOINT leftIndexProximal
                {
                  OFFSET 0.6741434040000008 0.08001303673000093 0.21311209370000003
                  CHANNELS 3 Yrotation Xrotation Zrotation
                  JOINT leftIndexIntermediate
                  {
                    OFFSET 0.3424334528999998 0 -0.007006000727000014
                    CHANNELS 3 Yrotation Xrotation Zrotation
                    JOINT leftIndexDistal
                    {
                      OFFSET 0.21062725750000022 -0.006412267400000449 -0.008554033939000005
                      CHANNELS 3 Yrotation Xrotation Zrotation
                      End Site
                      {
                        OFFSET 0.21062725750000022 -0.006412267400000449 -0.008554033939000005
                      }
                    }
                  }
                }
                JOINT leftLittleProximal
                {
                  OFFSET 0.6290287080000001 0.08001303673000093 -0.31631325000000005
                  CHANNELS 3 Yrotation Xrotation Zrotation
                  JOINT leftLittleIntermediate
                  {
                    OFFSET 0.32370477919999985 0 2.4586916000379766e-7
                    CHANNELS 3 Yrotation Xrotation Zrotation
                    JOINT leftLittleDistal
                    {
                      OFFSET 0.18656223960000062 0.000001311302189943575 -1.6391277328497988e-7
                      CHANNELS 3 Yrotation Xrotation Zrotation
                      End Site
                      {
                        OFFSET 0.18656223960000062 0.000001311302189943575 -1.6391277328497988e-7
                      }
                    }
                  }
                }
                JOINT leftMiddleProximal
                {
                  OFFSET 0.6833271082000002 0.08001434804000196 0.02219256017
                  CHANNELS 3 Yrotation Xrotation Zrotation
                  JOINT leftMiddleIntermediate
                  {
                    OFFSET 0.38150238940000036 -0.000001311302189943575 8.195639099317642e-8
                    CHANNELS 3 Yrotation Xrotation Zrotation
                    JOINT leftMiddleDistal
                    {
                      OFFSET 0.23535448309999996 0.000001311302189943575 -8.195639099317642e-8
                      CHANNELS 3 Yrotation Xrotation Zrotation
                      End Site
                      {
                        OFFSET 0.23535448309999996 0.000001311302189943575 -8.195639099317642e-8
                      }
                    }
                  }
                }
                JOINT leftRingProximal
                {
                  OFFSET 0.6755425600000008 0.08001303673000093 -0.14731779370000012
                  CHANNELS 3 Yrotation Xrotation Zrotation
                  JOINT leftRingIntermediate
                  {
                    OFFSET 0.353890955 0.000001311302189943575 0
                    CHANNELS 3 Yrotation Xrotation Zrotation
                    JOINT leftRingDistal
                    {
                      OFFSET 0.2042313899999999 0 -8.195639099317642e-8
                      CHANNELS 3 Yrotation Xrotation Zrotation
                      End Site
                      {
                        OFFSET 0.2042313899999999 0 -8.195639099317642e-8
                      }
                    }
                  }
                }
                JOINT leftThumbProximal
                {
                  OFFSET 0.0362791419100007 -0.10850762999999852 0.17306960000000005
                  CHANNELS 3 Yrotation Xrotation Zrotation
                  JOINT leftThumbIntermediate
                  {
                    OFFSET 0.36417451509999954 -0.022361636000001406 0.3280963707999999
                    CHANNELS 3 Yrotation Xrotation Zrotation
                    JOINT leftThumbDistal
                    {
                      OFFSET 0.23229259240000044 -0.010517954700000054 0.19135369000000008
                      CHANNELS 3 Yrotation Xrotation Zrotation
                      End Site
                      {
                        OFFSET 0.23229259240000044 -0.010517954700000054 0.19135369000000008
                      }
                    }
                  }
                }
              }
            }
          }
        }
        JOINT rightShoulder
        {
          OFFSET -0.23056015729999996 1.1458171999999995 0
          CHANNELS 3 Yrotation Xrotation Zrotation
          JOINT rightUpperArm
          {
            OFFSET -0.7638935272422845 0 0
            CHANNELS 3 Yrotation Xrotation Zrotation
            JOINT rightLowerArm
            {
              OFFSET -2.3729678390000024 0 0
              CHANNELS 3 Yrotation Xrotation Zrotation
              JOINT rightHand
              {
                OFFSET -2.211067417567708 0 0
                CHANNELS 3 Yrotation Xrotation Zrotation
                JOINT rightIndexProximal
                {
                  OFFSET -0.6741434040000008 0.08001303673000093 0.21311209370000003
                  CHANNELS 3 Yrotation Xrotation Zrotation
                  JOINT rightIndexIntermediate
                  {
                    OFFSET -0.3424334528999998 0 -0.007006000727000014
                    CHANNELS 3 Yrotation Xrotation Zrotation
                    JOINT rightIndexDistal
                    {
                      OFFSET -0.21062725750000022 -0.006412267400000449 -0.008554033939000005
                      CHANNELS 3 Yrotation Xrotation Zrotation
                      End Site
                      {
                        OFFSET -0.21062725750000022 -0.006412267400000449 -0.008554033939000005
                      }
                    }
                  }
                }
                JOINT rightLittleProximal
                {
                  OFFSET -0.6290287080000001 0.08001303673000093 -0.31631325000000005
                  CHANNELS 3 Yrotation Xrotation Zrotation
                  JOINT rightLittleIntermediate
                  {
                    OFFSET -0.32370477919999985 0 2.4586916000379766e-7
                    CHANNELS 3 Yrotation Xrotation Zrotation
                    JOINT rightLittleDistal
                    {
                      OFFSET -0.18656223960000062 0.000001311302189943575 -1.6391277328497988e-7
                      CHANNELS 3 Yrotation Xrotation Zrotation
                      End Site
                      {
                        OFFSET -0.18656223960000062 0.000001311302189943575 -1.6391277328497988e-7
                      }
                    }
                  }
                }
                JOINT rightMiddleProximal
                {
                  OFFSET -0.6833271082000002 0.08001434804000196 0.02219256017
                  CHANNELS 3 Yrotation Xrotation Zrotation
                  JOINT rightMiddleIntermediate
                  {
                    OFFSET -0.38150238940000036 -0.000001311302189943575 8.195639099317642e-8
                    CHANNELS 3 Yrotation Xrotation Zrotation
                    JOINT rightMiddleDistal
                    {
                      OFFSET -0.23535448309999996 0.000001311302189943575 -8.195639099317642e-8
                      CHANNELS 3 Yrotation Xrotation Zrotation
                      End Site
                      {
                        OFFSET -0.23535448309999996 0.000001311302189943575 -8.195639099317642e-8
                      }
                    }
                  }
                }
                JOINT rightRingProximal
                {
                  OFFSET -0.6755425600000008 0.08001303673000093 -0.14731779370000012
                  CHANNELS 3 Yrotation Xrotation Zrotation
                  JOINT rightRingIntermediate
                  {
                    OFFSET -0.353890955 0.000001311302189943575 0
                    CHANNELS 3 Yrotation Xrotation Zrotation
                    JOINT rightRingDistal
                    {
                      OFFSET -0.2042313899999999 0 -8.195639099317642e-8
                      CHANNELS 3 Yrotation Xrotation Zrotation
                      End Site
                      {
                        OFFSET -0.2042313899999999 0 -8.195639099317642e-8
                      }
                    }
                  }
                }
                JOINT rightThumbProximal
                {
                  OFFSET -0.0362791419100007 -0.10850762999999852 0.17306960000000005
                  CHANNELS 3 Yrotation Xrotation Zrotation
                  JOINT rightThumbIntermediate
                  {
                    OFFSET -0.36417451509999954 -0.022361636000001406 0.3280963707999999
                    CHANNELS 3 Yrotation Xrotation Zrotation
                    JOINT rightThumbDistal
                    {
                      OFFSET -0.23229259240000044 -0.010517954700000054 0.19135369000000008
                      CHANNELS 3 Yrotation Xrotation Zrotation
                      End Site
                      {
                        OFFSET -0.23229259240000044 -0.010517954700000054 0.19135369000000008
                      }
                    }
                  }
                }
              }
            }
          }
        }
      }
    }
  }
  JOINT leftUpperLeg
  {
    OFFSET 0.79362624 -0.4312191015000003 0
    CHANNELS 3 Yrotation Xrotation Zrotation
    JOINT leftLowerLeg
    {
      OFFSET 0 -4.386984560661179 0
      CHANNELS 3 Yrotation Xrotation Zrotation
      JOINT leftFoot
      {
        OFFSET 0 -4.942559600000001 -0.2726427748000001
        CHANNELS 3 Yrotation Xrotation Zrotation
        JOINT leftToes
        {
          OFFSET 0 -0.6796518563999998 1.08044673
          CHANNELS 3 Yrotation Xrotation Zrotation
          End Site
          {
            OFFSET 0 -0.6796518563999998 1.08044673
          }
        }
      }
    }
  }
  JOINT rightUpperLeg
  {
    OFFSET -0.79362624 -0.4312191015000003 0
    CHANNELS 3 Yrotation Xrotation Zrotation
    JOINT rightLowerLeg
    {
      OFFSET 0 -4.386984560661179 0
      CHANNELS 3 Yrotation Xrotation Zrotation
      JOINT rightFoot
      {
        OFFSET 0 -4.942559600000001 -0.2726427748000001
        CHANNELS 3 Yrotation Xrotation Zrotation
        JOINT rightToes
        {
          OFFSET 0 -0.6796518563999998 1.08044673
          CHANNELS 3 Yrotation Xrotation Zrotation
          End Site
          {
            OFFSET 0 -0.6796518563999998 1.08044673
          }
        }
      }
    }
  }
}
MOTION
Frames: 4
Frame Time: 0.03333333333333333
0.522489070892334 -5.190622985742188 1.9381275177001953 3.7218202860162415 -0.21378372286618796 -0.24169886079571948 -0.7997526030169007 -0.6455790745534786 -0.09344682142900428 -0.9632984473217907 -1.8736027098693733 -0.4505377917683971 0 0 0 -0.5586964135218385 0.14420128044572755 3.990126934153073 2.146642212346371 -21.59336984032421 -4.12441927516303 0 0 0 0 0 0 -7.8408390935060055 0.8679920291629817 -3.1281453138434547 -49.07476366439307 -20.87635743524379 -37.347937391359395 -106.58296574941576 -4.230245882052218 7.646363724742537 1.862673610908259 0.13875408125255603 35.4031795657762 -0.7329566672696216 0.04371431549673348 6.7809283445531445 0.01387690807208417 8.171249034346507e-7 -0.017586973881500746 -0.006658369695021115 5.246904062470472e-7 -0.008642938152196536 3.5347961160735917 -0.4815672501631016 7.218836069440124 -4.082741582544526 -0.014207970893056258 -0.47449254832592624 -0.006758449640772338 0.000020379650932521195 -0.008641810904204867 -0.7331816716331735 0.0437455883006893 6.79680819101896 0.005995294821761996 -0.000009318056699620984 -0.03346315331558742 0.0033379068568787427 0.000009040400484371953 -0.00876617754039315 -0.7271974724865526 0.043032660421214085 6.780857191223465 0.0018779095269951492 -0.00000115454480981475 -0.01743197728435645 0.0009409959205926785 7.528314917706755e-7 -0.008741103776463057 -0.7515926221429955 -38.3417851550875 17.67209159357839 14.612630794929249 5.516724904172849 11.484044368188771 4.4345688956548 0.5423695163722009 7.349776404092173 10.284682507658943 2.6537512904160017 8.901371468575915 34.83483199783798 -24.842592893951213 43.118827814140424 110.06295593849269 -4.084915254825674 -7.943259817643063 2.489924905247372 3.809046741656058 -18.610172141977703 1.4917646531105422 0.1811012065934726 -14.01825309076129 0.027601934511866183 -0.000005769165084718515 0.015270679361808618 -0.010959249331754904 -0.0000043459909318405995 0.007952073536791188 1.567814732845454 0.20010241784183688 -14.019613946225173 0.09529777024289725 -0.00004648347141368654 0.014393723766544164 -0.057756838093381356 -0.000016070027633352356 0.008558986524751377 1.4542193341535847 0.17173403798059944 -14.017869603022906 0.0956962551913591 -0.000012651622421700157 0.014391064061542185 -0.037757015793977035 -0.000004630668997604301 0.008298233720164156 1.5273681439375268 0.18998608866010316 -14.018711952249534 -0.027093504023115795 -9.249189395880648e-7 0.015977210394181197 -0.013759015612112336 -0.000001482539485896238 0.007988239687901376 1.5001835152255407 -28.631683707958448 -27.48297925428166 -7.661026318901214 4.192205745150038 -0.52408714472544 0.858446434876372 -1.5602948157312537 -1.9607373507589345 -7.3693426077951685 -11.981494188740088 12.734221381548187 170.60650602530154 61.43681271789738 166.93401865680084 0.9920548875505308 -13.711013131429569 -4.969534487708669 0.13676075046691497 -41.14716488419726 -2.530465692627314 -0.814516489464006 -7.7902659149607585 -11.32089506827066 -161.34599933512996 62.024411676874756 -158.2547867258718 -0.565187449351334 -15.967014085887019 2.5319845813514896 -0.101027605970594 -16.170290938303317 3.00340056864974
0.5224106311798096 -5.190652311227417 1.9379184246063232 3.6976126267814817 -0.21175055363056688 -0.23422507664181905 -0.7754704706706605 -0.6478141295222957 -0.10080116208715592 -0.9461057513699916 -1.8557216244593246 -0.450188049073724 0 0 0 -0.5585183175325384 0.11205842279873231 3.994030695182799 2.1659133719725134 -21.530153522458953 -4.147312505247206 0 0 0 0 0 0 -7.8408390935060055 0.8679920291629817 -3.1281453138434547 -49.066174217470696 -20.8446039547349 -37.36564071091018 -106.61465371435436 -4.229008381881511 7.649116200264626 1.5324512648306665 0.09109924724377687 35.41114992038843 -0.7329566672696216 0.04371431549673348 6.7809283445531445 0.01387690807208417 8.171249034346507e-7 -0.017586973881500746 -0.006658369695021115 5.246904062470472e-7 -0.008642938152196536 3.5347961160735917 -0.4815672501631016 7.218836069440124 -4.082741582544526 -0.014207970893056258 -0.47449254832592624 -0.006758449640772338 0.000020379650932521195 -0.008641810904204867 -0.7331816716331735 0.0437455883006893 6.79680819101896 0.005995294821761996 -0.000009318056699620984 -0.03346315331558742 0.0033379068568787427 0.000009040400484371953 -0.00876617754039315 -0.7271974724865526 0.043032660421214085 6.780857191223465 0.0018779095269951492 -0.00000115454480981475 -0.01743197728435645 0.0009409959205926785 7.528314917706755e-7 -0.008741103776463057 -0.7515926221429955 -38.3417851550875 17.67209159357839 14.612630794929249 5.516724904172849 11.484044368188771 4.4345688956548 0.5423695163722009 7.349776404092173 10.284439050341438 2.6523399839648225 8.922459728803773 34.79365814486052 -24.855817953057787 43.18703261898426 110.14590236282294 -4.081237254179119 -7.950241714136328 2.45845107676216 4.188671920510908 -18.489015036071862 1.4921122896764583 0.18118566390547713 -14.021495831504252 0.027601934511866183 -0.000005769165084718515 0.015270679361808618 -0.010959249331754904 -0.0000043459909318405995 0.007952073536791188 1.567814732845454 0.20010241784183688 -14.019613946225173 0.09545636514574092 -0.00004257252540228407 0.012905160303301777 -0.057756838093381356 -0.000016070027633352356 0.008558986524751377 1.4545673964399652 0.17181638748691225 -14.021111513872786 0.09585408969945497 -0.00001120749711546898 0.012903371047294044 -0.037757015793977035 -0.000004630668997604301 0.008298233720164156 1.5273681439375268 0.18998608866010316 -14.018711952249534 -0.027093504023115795 -9.249189395880648e-7 0.015977210394181197 -0.013759015612112336 -0.000001482539485896238 0.007988239687901376 1.5001835152255407 -28.631683707958448 -27.48297925428166 -7.661026318901214 4.192205745150038 -0.52408714472544 0.858446434876372 -1.5602948157312537 -1.9607373507589345 -7.343649623323002 -11.982894143653546 12.72642434618342 170.60650602530154 61.43681271789738 166.93401865680084 0.9920548875505308 -13.711013131429569 -4.969534487708669 0.13676075046691497 -41.14716488419726 -2.530465692627314 -0.7870293150005869 -7.8013728567440035 -11.328023229430219 -161.34599933512996 62.024411676874756 -158.2547867258718 -0.5669334971357188 -15.958030937517387 2.5441311901590016 -0.1009304442343216 -16.166600086561072 3.0013116440600944
0.5223321914672852 -5.190681636712647 1.9377093315124512 3.673405001912842 -0.20971422300987508 -0.2267521747707505 -0.7727757346897554 -0.627700430898217 -0.09657255175673819 -0.9289131450783272 -1.8378409334043784 -0.4498329482510879 0 0 0 -0.5583424492927154 0.07991556706815751 3.9979339337119555 2.185149219251467 -21.466928013136595 -4.170172627471888 0 0 0 0 0 0 -7.8408390935060055 0.8679920291629817 -3.1281453138434547 -49.05759740842509 -20.81284803954701 -37.383331597516836 -106.64634221202361 -4.227769599532363 7.651868274320763 1.2022224541528748 0.043491143670054154 35.41939330824562 -0.7329566672696216 0.04371431549673348 6.7809283445531445 0.01387690807208417 8.171249034346507e-7 -0.017586973881500746 -0.006658369695021115 5.246904062470472e-7 -0.008642938152196536 3.5347961160735917 -0.4815672501631016 7.218836069440124 -4.082741582544526 -0.014207970893056258 -0.47449254832592624 -0.006758449640772338 0.000020379650932521195 -0.008641810904204867 -0.7331816716331735 0.0437455883006893 6.79680819101896 0.005995294821761996 -0.000009318056699620984 -0.03346315331558742 0.0033379068568787427 0.000009040400484371953 -0.00876617754039315 -0.7271974724865526 0.043032660421214085 6.780857191223465 0.0018779095269951492 -0.00000115454480981475 -0.01743197728435645 0.0009409959205926785 7.528314917706755e-7 -0.008741103776463057 -0.7515926221429955 -38.3417851550875 17.67209159357839 14.612630794929249 5.516724904172849 11.484044368188771 4.4345688956548 0.5423695163722009 7.349776404092173 10.284194142253952 2.6509286791240534 8.94354868644548 34.75246528484046 -24.868995492649912 43.255255285817 110.22884719096858 -4.077548999095536 -7.957217612661317 2.4277664981135016 4.568362778749806 -18.36800561949753 1.4924596239368646 0.1812701478984353 -14.024737743896708 0.027917610610990108 -0.000004407200070574429 0.012295294142534325 -0.010959249331754904 -0.0000043459909318405995 0.007952073536791188 1.5685072355673457 0.20027996382335755 -14.026096950056377 0.09561495337702468 -0.000038657459427569616 0.011416598514334067 -0.057756838093381356 -0.000016070027633352356 0.008558986524751377 1.454915372032694 0.17189873699357996 -14.024354253054607 0.09601192992885017 -0.00000975927301569759 0.01141567970718483 -0.037757015793977035 -0.000004630668997604301 0.008298233720164156 1.5280622452489943 0.19015907215681052 -14.025197437074267 -0.02677782791965745 -5.006085693097529e-7 0.013001824317135872 -0.013759015612112336 -0.000001482539485896238 0.007988239687901376 1.5001835152255407 -28.631683707958448 -27.48297925428166 -7.661026318901214 4.192205745150038 -0.52408714472544 0.858446434876372 -1.5602948157312537 -1.9607373507589345 -7.317956413350201 -11.984290614640612 12.718625609951701 170.60324359048002 61.44150578667143 166.92859127115543 0.9924115515893066 -13.709336354999277 -4.972500743959439 0.1376386254855907 -41.145015241417084 -2.5405882110572517 -0.7595401106113796 -7.812475784665157 -11.335157516469227 -161.34832660252493 62.006587755275866 -158.2595100523701 -0.5686774256657257 -15.949046415965212 2.5562768029544847 -0.10083342501905489 -16.162911081558768 2.9992227617960436
0.5225407481193542 -5.190660655877686 1.9376978874206543 3.6582236533751207 -0.20655750752630606 -0.2159373556099515 -0.7613552214443361 -0.6193514709923773 -0.09643786595185982 -0.9147413163225876 -1.8207059285697877 -0.446151176109762 0 0 0 -0.5587655481985295 0.04980543887522938 3.999569556907375 2.1989929844629836 -21.386261768720573 -4.1893286380842065 0 0 0 0 0 0 -7.8408390935060055 0.8679920291629817 -3.1281453138434547 -49.06496268794157 -20.785297686144396 -37.40050693968222 -106.64940835181463 -4.227692978297975 7.652129859983747 0.7507297813967507 -0.03496805609106348 35.44194356598486 -0.7329566672696216 0.04371431549673348 6.7809283445531445 0.01387690807208417 8.171249034346507e-7 -0.017586973881500746 -0.006658369695021115 5.246904062470472e-7 -0.008642938152196536 3.5347961160735917 -0.4815672501631016 7.218836069440124 -4.082741582544526 -0.014207970893056258 -0.47449254832592624 -0.006758449640772338 0.000020379650932521195 -0.008641810904204867 -0.7331816716331735 0.0437455883006893 6.79680819101896 0.005995294821761996 -0.000009318056699620984 -0.03346315331558742 0.0033379068568787427 0.000009040400484371953 -0.00876617754039315 -0.7271974724865526 0.043032660421214085 6.780857191223465 0.0018779095269951492 -0.00000115454480981475 -0.01743197728435645 0.0009409959205926785 7.528314917706755e-7 -0.008741103776463057 -0.7515926221429955 -38.3417851550875 17.67209159357839 14.612630794929249 5.516724904172849 11.484044368188771 4.4345688956548 0.5423695163722009 7.349776404092173 10.267778457343095 2.6449559180973385 8.984570182171215 34.724812276931615 -24.876537170218576 43.294550808417156 110.31456199689848 -4.073778163084078 -7.964401058816212 2.3784940166874606 5.036482092616761 -18.207498088148007 1.4929126485809328 0.18138414059127975 -14.02905559980224 0.028130415334303775 0.0000035586350024469473 0.010289654027340544 -0.010959249331754904 -0.0000043459909318405995 0.007952073536791188 1.5689586757397942 0.20039969296894297 -14.030414811280483 0.09582476128253846 -0.00002355166768210915 0.009415183066148393 -0.057756838093381356 -0.000016070027633352356 0.008558986524751377 1.4553690352650304 0.1720099281715411 -14.028671279034345 0.09622473271570824 -7.618395859617036e-7 0.009410043749143056 -0.037757015793977035 -0.000004630668997604301 0.008298233720164156 1.5285143266390133 0.19027574630463912 -14.029515295216713 -0.026565023191548073 0.000006833174107859103 0.010996181710706127 -0.013759015612112336 -0.000001482539485896238 0.007988239687901376 1.5001835152255407 -28.631683707958448 -27.48297925428166 -7.661026318901214 4.192205745150038 -0.52408714472544 0.858446434876372 -1.5602948157312537 -1.9607373507589345 -7.292248308637427 -11.9899690892205 12.703973851121923 170.55607328609156 61.437462705079355 166.88445825036794 0.9922671720155466 -13.704029278307157 -4.973859151917825 0.138463670985707 -41.139129027540854 -2.5487486749570127 -0.7378457932586469 -7.820037905866802 -11.34553572836337 -161.34581879393858 62.00257171724526 -158.26074724435838 -0.5707246371599013 -15.933142011668007 2.574083293043131 -0.10047004739423195 -16.15562394335925 2.992014316173896
